<?xml version="1.0" encoding="utf-8"?>
<!-- Generator: Adobe Illustrator 23.0.2, SVG Export Plug-In . SVG Version: 6.00 Build 0)  -->
<svg version="1.1" id="Layer_1" xmlns="http://www.w3.org/2000/svg" xmlns:xlink="http://www.w3.org/1999/xlink" x="0px" y="0px"
	 viewBox="0 0 173.2 46" style="enable-background:new 0 0 173.2 46;" xml:space="preserve">
<style type="text/css">
	.st0{fill:#FFFFFF;}
	.st1{fill:#272425;}
</style>
<title>Asset 1</title>
<path class="st0" d="M9,40.2L9,40.2 M44.5,9.1C44.5,9.1,44.6,9.1,44.5,9.1C44.6,9.3,44.5,9,44.5,9.1C44.4,9.1,44.5,9.1,44.5,9.1
	S44.5,9.1,44.5,9.1 M47.6,29.3C43.4,42,29.7,49,17,44.8c-0.6-0.2-1.1-0.4-1.7-0.6C5.7,40,2.6,33.2,1.3,29c-1-3.1-1.4-6.3-1.2-9.6
	C0.7,13.3,3.6,7.6,8.4,3.7c1.1-0.9,2.2-1.7,3.4-2.4c0.6-0.3,1.2-0.6,1.8-0.9C14.2,0.1,15,0,15.7,0.1c-0.1,0-0.8,0.4-0.9,0.4
	S13.8,1,13.8,1c0.3-0.1,2.5-1,2.6-0.8c0,0-1.2,0.6-1.2,0.6c0.6-0.1,1.3-0.3,1.9-0.5c-1.7,0.8-3.3,1.7-4.9,2.7
	c-0.4,0.3-0.8,0.6-1.2,0.8c1.5-0.9,5.5-3,5.9-3.2c0,0,0.1,0.2,0.1,0.2c-0.1,0.1-0.2,0.1-0.3,0.2c-0.2,0.1-0.4,0.3-0.7,0.4
	C16,1.2,16.8,0.8,17,0.9c0,0-1.5,1-1.6,1c-0.6,0.3-1.1,0.7-1.7,1c1-0.5,3.5-1.7,3.6-1.8c0.2,0,0.5,0.1,0.7,0.1
	c-1.3,0.8-2.7,1.6-4.1,2.3c-1.3,0.8-2.5,1.7-3.6,2.8C7.9,8.4,6.2,11,5,13.8c-2.5,6.1-2,13.1,1.3,18.8c1.5,2.7,3.7,5,6.2,6.7
	c1.3,0.9,2.7,1.6,4.1,2.2c1.5,0.6,3.1,1,4.7,1.3c3.2,0.6,6.6,0.4,9.7-0.6c1.6-0.5,3.1-1.1,4.5-1.9c1.3-0.8,2.6-1.6,3.7-2.6
	c2.3-2,4.2-4.6,5.4-7.5c0.6-1.5,1.1-3,1.4-4.5c0.4-1.5,0.5-3.1,0.4-4.6c-0.1-3.2-0.9-6.3-2.3-9.2c-0.7-1.4-1.5-2.7-2.5-3.9
	c-0.8-1-1.6-1.9-2.5-2.7c-0.2-0.2-0.4-0.4-0.6-0.6C38.6,4.7,38.9,5,39,5c-0.4-0.4-0.9-0.8-1.3-1.1c-0.2-0.2-1.5-0.8-1.5-1
	c1.2,0.7,2.4,1.6,3.5,2.5c0.6,0.5,2.1,2.1,2.3,2.4c0.1,0.1,0.2,0.3,0.3,0.3c-0.3-0.5-0.7-1-1.2-1.5c-0.5-0.6-1-1.1-1.6-1.7
	c-0.5-0.4-1-0.9-1.6-1.3c-0.5-0.3-1.1-0.7-1.5-1.1c0.2-0.1,1.3,0.7,1.5,0.8C38.5,4,39,4.4,39.5,4.8c0.5,0.5,2.2,2.4,2.7,2.8
	c-0.1-0.4-0.6-0.7-0.8-1S39.9,5.3,40,5.1s0.8,0.6,0.9,0.8s0.4,0.4,0.5,0.4c-0.1-0.1-0.2-0.3-0.4-0.4c-0.2-0.2-0.5-0.5-0.7-0.7
	c0.2,0,0.7,0.6,0.9,0.7c1,1,1.8,2.1,2.7,3.2c0.1-0.1-0.9-1.3-1-1.4S41.5,6,41.6,5.9s1,1,1,1s-0.2-0.2-0.1-0.2
	c0.4,0.4,0.8,0.9,1.2,1.4c0,0.1,0.2,0.1,0.3,0.3S44.4,9,44.5,9c0-0.3-1.1-1.4-1-1.6c1.2,1.5,2.2,3.1,2.9,4.8
	c1.2,2.4,1.9,5.1,2.1,7.8C48.9,23.2,48.6,26.3,47.6,29.3C47.4,29.9,47.6,29.3,47.6,29.3"/>
<path class="st0" d="M16.5,32.5c0,0,0.7-0.2,0.5-0.2c-0.2,0-0.4-0.1-0.6-0.1c-0.4,0-0.8-0.1-1.1-0.1c0.1-0.1,0.2,0,0.4-0.1
	c0-0.3-2-0.1-2.2-0.2c0.1-0.2,0.4-0.1,0.5-0.2c-0.1,0-0.1-0.1-0.2-0.1c0,0,0.3-0.2,0.1-0.2c-0.3,0-0.6,0-0.9-0.1
	c0.9-0.2,1.8-0.2,2.8-0.2c0.9,0,1.8-0.1,2.7-0.3h-1.8c0.2-0.2,0.6-0.1,0.9-0.2s6.9-0.6,8.5-0.6c0.8,0,1.6-0.1,2.3-0.1l5.1-0.1
	c0.4,0,1.6,0,1.6-0.4c0-3.4,0-11.1,0-11.5s-0.5-0.6-0.8-0.7c-0.7-0.6-8.5-6.8-8.9-7L25,9.8c-0.1-0.1-0.3,0.1-0.5,0.2
	c-1.2,1.1-6.3,5.2-7.7,6.2c-0.9,0.6-1.9,1.2-2.9,1.7c-0.5,0.2-0.4-0.2-0.6-0.5c-0.1-0.3-0.3-0.5-0.4-0.8c-0.1-0.3,0.1-0.7,0.3-0.9
	c0.5-0.6,1.1-1.2,1.7-1.7c1.2-1,9.6-8.3,9.9-8.4c0.1-0.1,0.4,0.3,0.5,0.3c2.3,2,4.6,3.9,7,5.8c1.3,1,4.7,3.8,4.8,3.9
	s0.7,0.4,0.8,0.7c0.1,0.3,0.1,0.6,0,0.9c0,0.5,0.1,12.6,0.1,13.4c0,0.2,0.2,2,0.1,2s0,0.4-0.2,0.3s-0.4,0.2-0.6,0.1
	C36.7,33,35.8,32.9,35,33c-3.2,0-13,0-14.6-0.1c-0.8,0-1.6,0-2.4-0.2c-0.8-0.1-1.7,0-2.5-0.1C15.5,32.7,16.2,32.7,16.5,32.5"/>
<path class="st0" d="M37,2.6L37,2.6c-0.1,0.1-1.2-0.6-1.6-0.8c-0.1,0-0.1-0.1-0.2,0c-0.2,0-0.3-0.1-0.5-0.2
	c-0.1-0.1-0.2-0.2-0.4-0.2c-0.3-0.1-0.7-0.3-1-0.5c0.1,0,0.1,0,0.2,0c1.2,0.4,2.3,1,3.3,1.6C36.9,2.5,37,2.5,37,2.6"/>
<path class="st0" d="M38.3,2.9c0.2,0.1,0.3,0.1,0.5,0.2c0.5,0.3,1.6,1.3,1.8,1.4s0.1,0.1,0,0.1s-0.1,0-0.1,0
	C40,4.3,38.5,3.1,38.3,2.9"/>
<path class="st0" d="M40.5,3.9c0.4,0.3,0.7,0.6,1.1,1l0.6,0.6c0,0,0.1,0.1,0.1,0.1l0,0L40.5,3.9L40.5,3.9"/>
<path class="st0" d="M41.5,4.2L41.5,4.2c0.6,0.5,1.1,1,1.5,1.5c0,0,0,0,0,0.1s-0.1,0-0.1,0C42.4,5.3,41.4,4.3,41.5,4.2L41.5,4.2"/>
<path class="st0" d="M44.2,7.2l-1-1.2c0,0-0.1-0.1-0.1-0.1c0.1,0.1,0.2,0.2,0.3,0.3C43.6,6.4,44.2,7.2,44.2,7.2L44.2,7.2"/>
<path class="st0" d="M35.3,1.4c0.4,0.1,0.7,0.3,1,0.5l0,0L35.3,1.4"/>
<path class="st0" d="M42.3,5.5L42.3,5.5"/>
<path class="st0" d="M41.9,5L41.9,5"/>
<path class="st0" d="M42.3,5.4c-0.1-0.2-0.3-0.3-0.4-0.4l-0.4-0.4l0,0l0,0l0,0L41.9,5L42.3,5.4l0.8,0.9h0.1l0,0
	C42.9,6.1,42.7,5.8,42.3,5.4L42.3,5.4"/>
<path class="st1" d="M169.1,15.1h-4.9v-5h-3.4v5h-3.9V18h3.9v9.3c0,0.7,0,1.4,0.1,2.2c0,0.7,0.3,1.3,0.6,1.9
	c0.4,0.6,0.9,1.1,1.6,1.4c0.9,0.4,2,0.6,3,0.5c0.5,0,1-0.1,1.5-0.1c0.5-0.1,1.1-0.2,1.6-0.5v-3.1c-0.4,0.2-0.8,0.3-1.2,0.4
	c-0.4,0.1-0.8,0.1-1.2,0.1c-0.5,0-1-0.1-1.5-0.4c-0.3-0.2-0.6-0.6-0.8-0.9c-0.2-0.4-0.3-0.9-0.3-1.3c0-0.5,0-1,0-1.5V18h4.9
	L169.1,15.1z M153.1,24.4v1.1c0,0.6-0.1,1.2-0.3,1.8c-0.2,0.6-0.5,1.2-0.9,1.7c-0.4,0.5-1,0.9-1.6,1.2c-0.7,0.3-1.6,0.5-2.4,0.5
	c-1,0.1-2-0.2-2.8-0.7c-0.7-0.5-1.1-1.4-1-2.2c0-0.6,0.2-1.3,0.6-1.7c0.5-0.5,1-0.8,1.7-1.1c0.7-0.3,1.5-0.4,2.3-0.5
	c0.8-0.1,1.6-0.1,2.5-0.1L153.1,24.4z M143.8,19.4l0.9-0.7c0.3-0.3,0.7-0.5,1.1-0.7c0.4-0.2,0.9-0.3,1.3-0.5
	c0.6-0.1,1.1-0.2,1.7-0.2c0.6,0,1.3,0.1,1.9,0.3c0.5,0.2,0.9,0.5,1.3,0.9c0.3,0.3,0.6,0.8,0.8,1.2c0.2,0.4,0.3,0.9,0.3,1.4v0.8h-2.5
	c-1.3,0-2.6,0.1-3.8,0.3c-1.1,0.2-2.1,0.5-3.1,1c-0.8,0.5-1.6,1.1-2.1,1.9c-0.5,0.9-0.8,1.9-0.8,2.9c0,0.8,0.2,1.6,0.5,2.3
	c0.3,0.7,0.8,1.3,1.3,1.8c0.6,0.5,1.3,0.8,2,1c0.8,0.2,1.6,0.3,2.4,0.3c1.2,0,2.4-0.2,3.6-0.7c1.1-0.5,2-1.4,2.7-2.4h0.1
	c0,0.9,0,1.8,0.1,2.7h3c-0.1-0.5-0.1-1-0.1-1.5s0-1.1,0-1.7v-9.1c0-0.8-0.1-1.5-0.4-2.2c-0.3-0.7-0.8-1.4-1.3-1.9
	c-0.7-0.6-1.5-1-2.3-1.3c-1.1-0.4-2.2-0.5-3.4-0.5c-1.3,0-2.6,0.2-3.8,0.7c-1.2,0.4-2.4,1.1-3.3,2L143.8,19.4z M139.5,15.1h-4.9v-5
	h-3.4v5h-3.9V18h3.9v9.3c0,0.7,0,1.4,0.1,2.2c0,0.7,0.3,1.3,0.6,1.9c0.4,0.6,0.9,1.1,1.6,1.4c0.9,0.4,2,0.6,3,0.5
	c0.5,0,1-0.1,1.5-0.1c0.5-0.1,1.1-0.2,1.6-0.5v-3.1c-0.4,0.2-0.8,0.4-1.2,0.4c-0.4,0.1-0.8,0.1-1.2,0.1c-0.5,0-1-0.1-1.5-0.4
	c-0.3-0.2-0.6-0.6-0.8-0.9c-0.2-0.4-0.3-0.9-0.3-1.3c0-0.5,0-1,0-1.5V18h4.9L139.5,15.1z M122.9,10.4c1,1,2.5,1,3.5,0
	c0.5-0.5,0.7-1.1,0.7-1.7c0-1.4-1.1-2.5-2.5-2.5s-2.5,1.1-2.5,2.5C122.1,9.3,122.4,10,122.9,10.4 M122.9,32.9h3.4V15.1h-3.4V32.9z
	 M108.8,29.7c-0.7-0.3-1.3-0.7-1.8-1.3c-0.5-0.6-0.9-1.2-1.2-2c-0.5-1.6-0.5-3.4,0-5c0.2-0.7,0.6-1.4,1.2-2c0.5-0.5,1.2-1,1.8-1.3
	c1.6-0.6,3.3-0.6,4.9,0c0.7,0.3,1.3,0.7,1.8,1.3c0.5,0.6,0.9,1.3,1.2,2c0.5,1.6,0.5,3.4,0,5c-0.3,0.7-0.7,1.4-1.2,2
	c-0.5,0.6-1.1,1-1.8,1.3C112.1,30.3,110.3,30.3,108.8,29.7 M102,32.9h3.4v-2.6h0.1c0.7,1,1.6,1.7,2.7,2.2c1.1,0.5,2.3,0.8,3.5,0.8
	c1.3,0,2.6-0.2,3.7-0.7c1.1-0.5,2.1-1.1,2.9-2c0.8-0.9,1.4-1.9,1.8-3c0.4-1.2,0.7-2.4,0.6-3.7c0-1.3-0.2-2.5-0.6-3.7
	c-0.4-1.1-1-2.1-1.8-3c-0.8-0.9-1.8-1.5-2.9-2c-1.2-0.5-2.5-0.7-3.7-0.7c-1.2,0-2.5,0.3-3.6,0.8c-1.1,0.5-1.9,1.2-2.6,2.2h-0.1V4.5
	H102V32.9z M98.8,15.1h-3.4v9.2c0,0.9-0.1,1.8-0.4,2.7c-0.2,0.7-0.5,1.3-1,1.9c-0.4,0.5-1,0.8-1.6,1.1c-0.6,0.2-1.3,0.4-2,0.3
	c-0.5,0-1-0.1-1.5-0.2c-0.5-0.2-0.9-0.4-1.3-0.8c-0.4-0.4-0.7-0.9-0.9-1.4c-0.2-0.7-0.3-1.4-0.3-2.1V15.1H83v11.5
	c0,1,0.2,2.1,0.5,3.1c0.3,0.8,0.8,1.5,1.4,2.1c0.6,0.6,1.3,1,2.1,1.2c2,0.7,4.2,0.5,6.1-0.5c1-0.5,1.8-1.3,2.2-2.3h0.1V33h3.4
	L98.8,15.1z M59,32.9h3.6V20.7h13.8v12.2H80V6.3h-3.6v11.1H62.7V6.3H59V32.9z"/>
<path class="st1" d="M168.3,42.5h0.9v-4h1.5v-0.8h-3.8v0.8h1.5V42.5z M161.6,42.5h0.9v-3.7l0,0l2.4,3.7h1.1v-4.8H165v3.6l0,0
	l-2.3-3.6h-1.1L161.6,42.5z M156.9,42.5h3.3v-0.8h-2.4v-1.3h2.2v-0.8h-2.2v-1.2h2.3v-0.8h-3.2L156.9,42.5z M150.2,42.5h0.8v-4l0,0
	l1.5,4h0.6l1.5-4l0,0v4h0.8v-4.8H154l-1.3,3.4l-1.3-3.4h-1.3L150.2,42.5z M144.3,42.5h0.9v-3.7l0,0l2.4,3.7h1.1v-4.8h-0.9v3.6l0,0
	l-2.3-3.6h-1.1L144.3,42.5z M138.9,39.4c0.1-0.2,0.2-0.4,0.3-0.5c0.1-0.2,0.3-0.3,0.5-0.4c0.2-0.1,0.4-0.1,0.7-0.1
	c0.2,0,0.5,0,0.7,0.1c0.2,0.1,0.4,0.2,0.5,0.4c0.1,0.2,0.3,0.3,0.3,0.5c0.1,0.2,0.1,0.4,0.1,0.7c0,0.2,0,0.5-0.1,0.7
	c-0.1,0.2-0.2,0.4-0.3,0.6c-0.1,0.2-0.3,0.3-0.5,0.4c-0.2,0.1-0.4,0.1-0.7,0.1c-0.2,0-0.5,0-0.7-0.1c-0.2-0.1-0.4-0.2-0.5-0.4
	c-0.1-0.2-0.3-0.4-0.3-0.6c-0.1-0.2-0.1-0.5-0.1-0.7C138.8,39.9,138.8,39.6,138.9,39.4 M138.1,41.2c0.1,0.3,0.3,0.6,0.5,0.8
	c0.2,0.2,0.5,0.4,0.8,0.5c0.3,0.1,0.7,0.2,1,0.2c0.3,0,0.7-0.1,1-0.2c0.3-0.1,0.6-0.3,0.8-0.5c0.2-0.2,0.4-0.5,0.5-0.8
	c0.1-0.3,0.2-0.7,0.2-1c0-0.3-0.1-0.7-0.2-1c-0.1-0.3-0.3-0.6-0.5-0.8c-0.2-0.2-0.5-0.4-0.8-0.5c-0.3-0.1-0.7-0.2-1-0.2
	c-0.3,0-0.7,0.1-1,0.2c-0.3,0.1-0.6,0.3-0.8,0.5c-0.2,0.2-0.4,0.5-0.5,0.8c-0.1,0.3-0.2,0.7-0.2,1.1
	C137.9,40.6,137.9,40.9,138.1,41.2 M134.3,39.8v-1.4h0.7h0.3c0.1,0,0.2,0,0.3,0.1c0.1,0,0.2,0.1,0.2,0.2c0.1,0.1,0.1,0.2,0.1,0.3
	c0,0.1,0,0.3-0.1,0.4c-0.1,0.1-0.2,0.2-0.2,0.2c-0.1,0-0.2,0.1-0.3,0.1h-0.4L134.3,39.8z M133.4,42.6h0.9v-2h0.6l1.1,2h1l-1.3-2.1
	c0.3,0,0.6-0.2,0.8-0.4c0.2-0.3,0.3-0.6,0.3-0.9c0-0.2,0-0.5-0.1-0.7c-0.1-0.2-0.2-0.3-0.4-0.4c-0.2-0.1-0.4-0.2-0.6-0.2
	c-0.2,0-0.4-0.1-0.7-0.1h-1.7L133.4,42.6z M131,42.6h0.9v-4.9H131L131,42.6z M127.3,42.6h0.7l2-4.8h-0.9l-1.3,3.6l-1.3-3.6h-1
	L127.3,42.6z M120.1,42.6h0.9v-3.7l0,0l2.4,3.7h1.1v-4.9h-0.8v3.6l0,0l-2.3-3.6h-1.1L120.1,42.6z M115.5,42.6h3.3v-0.8h-2.4v-1.4
	h2.2v-0.8h-2.2v-1.2h2.3v-0.8h-3.2V42.6z M109.1,39.8v-1.4h0.7h0.3c0.1,0,0.2,0,0.3,0.1c0.1,0,0.2,0.1,0.2,0.2
	c0.1,0.1,0.1,0.2,0.1,0.3c0,0.1,0,0.3-0.1,0.4c-0.1,0.1-0.1,0.2-0.2,0.2c-0.1,0-0.2,0.1-0.3,0.1h-0.4L109.1,39.8z M108.3,42.6h0.9
	v-2h0.6l1.1,2h1l-1.3-2.1c0.3,0,0.6-0.2,0.8-0.4c0.2-0.2,0.3-0.6,0.3-0.9c0-0.2,0-0.5-0.2-0.7c-0.1-0.2-0.2-0.3-0.4-0.4
	c-0.2-0.1-0.4-0.2-0.6-0.2c-0.2,0-0.4-0.1-0.7-0.1h-1.7L108.3,42.6z M106.7,37.8h-0.8v3c0,0.1,0,0.3-0.1,0.4c0,0.1-0.1,0.3-0.2,0.4
	c-0.1,0.1-0.2,0.2-0.3,0.3c-0.2,0.1-0.3,0.1-0.5,0.1c-0.2,0-0.4,0-0.5-0.1c-0.1-0.1-0.2-0.2-0.3-0.3c-0.1-0.1-0.1-0.2-0.2-0.4
	c0-0.1-0.1-0.2-0.1-0.4v-3h-0.8v3c0,0.3,0,0.5,0.1,0.8c0.1,0.2,0.2,0.4,0.4,0.6c0.2,0.2,0.4,0.3,0.6,0.4c0.5,0.2,1,0.2,1.5,0
	c0.2-0.1,0.4-0.2,0.6-0.4c0.2-0.2,0.3-0.4,0.4-0.6c0.1-0.2,0.1-0.5,0.1-0.8L106.7,37.8z M97.5,39.5c0.1-0.2,0.2-0.4,0.3-0.5
	c0.1-0.2,0.3-0.3,0.5-0.4c0.2-0.1,0.4-0.1,0.7-0.1c0.2,0,0.5,0,0.7,0.1c0.2,0.1,0.4,0.2,0.5,0.4c0.1,0.2,0.3,0.3,0.3,0.5
	c0.1,0.2,0.1,0.4,0.1,0.7c0,0.2,0,0.5-0.1,0.7c-0.1,0.2-0.2,0.4-0.3,0.6c-0.1,0.2-0.3,0.3-0.5,0.4c-0.2,0.1-0.4,0.1-0.7,0.1
	c-0.2,0-0.5,0-0.7-0.1c-0.2-0.1-0.4-0.2-0.5-0.4c-0.1-0.2-0.3-0.4-0.3-0.6c-0.1-0.2-0.1-0.5-0.1-0.7C97.4,39.9,97.4,39.7,97.5,39.5
	 M96.7,41.2c0.1,0.3,0.3,0.6,0.5,0.8c0.2,0.2,0.5,0.4,0.8,0.5c0.3,0.1,0.7,0.2,1,0.2c0.3,0,0.7-0.1,1-0.2c0.3-0.1,0.6-0.3,0.8-0.5
	c0.2-0.2,0.4-0.5,0.5-0.8c0.1-0.3,0.2-0.7,0.2-1c0-0.3-0.1-0.7-0.2-1c-0.1-0.3-0.3-0.6-0.5-0.8c-0.2-0.2-0.5-0.4-0.8-0.5
	c-0.3-0.1-0.7-0.2-1-0.2c-0.3,0-0.7,0.1-1,0.2c-0.3,0.1-0.6,0.3-0.8,0.5c-0.2,0.2-0.4,0.5-0.5,0.8c-0.1,0.3-0.2,0.7-0.2,1.1
	C96.5,40.6,96.6,41,96.7,41.2 M93.8,42.7h0.9v-2.2l1.8-2.8h-1l-1.2,1.9L93,37.7h-1.1l1.8,2.8L93.8,42.7z M86.2,42.7h3.3v-0.8h-2.5
	v-1.4h2.2v-0.8h-2.2v-1.2h2.3v-0.8h-3.2L86.2,42.7z M82.8,42.7h0.9v-4h1.5v-0.8h-3.8v0.8h1.5L82.8,42.7z M78.1,40.7l0.8-2l0.7,2
	H78.1z M76.4,42.5h1l0.4-1.1h2.1l0.4,1.1h1l-2.1-4.8h-0.7L76.4,42.5z M73.7,42.5h0.7l2-4.8h-0.9l-1.3,3.6l-1.3-3.6h-1L73.7,42.5z
	 M67.7,42.5H71v-0.8h-2.5v-1.3h2.2v-0.8h-2.2v-1.2h2.3v-0.8h-3.2L67.7,42.5z M63.7,42.5h2.9v-0.8h-2v-4h-0.9L63.7,42.5z M59,42.5
	h3.3v-0.8h-2.5v-1.3h2.2v-0.8h-2.2v-1.2h2.3v-0.8H59L59,42.5z"/>
<g>
	<path d="M172.1,10.1c0,1.1-0.9,2-2,2c-1.1,0-2-0.9-2-2c0-1.1,0.9-2,2-2C171.2,8.1,172.1,9,172.1,10.1z M168.6,10.1
		c0,0.9,0.6,1.6,1.5,1.6c0.9,0,1.5-0.7,1.5-1.6c0-0.9-0.6-1.6-1.5-1.6C169.2,8.5,168.6,9.2,168.6,10.1z M169.8,11.1h-0.5v-2
		c0.2,0,0.4-0.1,0.8-0.1c0.4,0,0.5,0.1,0.7,0.1c0.1,0.1,0.2,0.2,0.2,0.4c0,0.2-0.2,0.4-0.4,0.5v0c0.2,0.1,0.3,0.2,0.4,0.5
		c0.1,0.3,0.1,0.4,0.1,0.5h-0.5c-0.1-0.1-0.1-0.3-0.2-0.5c0-0.2-0.2-0.3-0.4-0.3h-0.2V11.1z M169.8,10h0.2c0.3,0,0.5-0.1,0.5-0.3
		c0-0.2-0.1-0.3-0.4-0.3c-0.1,0-0.2,0-0.3,0V10z"/>
</g>
</svg>
